<svg width="250" height="199" viewBox="0 0 250 199" fill="none" xmlns="http://www.w3.org/2000/svg">
<g clip-path="url(#clip0_380:263)">
<path opacity="0.1" d="M146.616 33.6301C130.798 33.0794 115.729 27.9672 101.343 22.3728C86.9564 16.7784 72.7069 10.5795 57.267 7.61588C47.3363 5.70948 35.9782 5.44029 27.9785 10.7704C20.2769 15.9096 17.7887 24.7564 16.4517 32.9742C15.4447 39.156 14.8532 45.6607 17.6127 51.4485C19.5265 55.4668 22.9264 58.844 25.2752 62.7058C33.4559 76.0971 27.6754 92.6111 18.8104 105.687C14.6553 111.822 9.82802 117.678 6.62127 124.203C3.41451 130.727 1.92845 138.213 4.73436 144.874C7.51828 151.482 14.1493 156.435 21.3303 159.923C35.9196 167.007 53.1046 169.034 69.8741 170.181C106.984 172.724 144.289 171.623 181.497 170.522C195.268 170.113 209.097 169.699 222.642 167.568C230.165 166.383 237.931 164.506 243.393 159.969C250.325 154.211 252.043 144.458 247.399 137.239C239.605 125.128 218.069 122.12 212.614 109.12C209.617 101.967 212.697 93.9987 217.052 87.3617C226.399 73.1286 242.064 60.6403 242.89 44.371C243.457 33.1945 235.924 22.0057 224.28 16.7172C212.076 11.1546 195.148 11.8594 186.148 21.0341C176.875 30.4878 160.582 34.1146 146.616 33.6301Z" fill="black"/>
<path d="M106.432 168.982L22.7724 168.573L14.4597 149.052L43.8534 146.915L38.7304 125.512L96.8675 117.967L41.1966 98.5896L46.1142 97.4198L135.632 112.042L130.702 145.445L123.656 163.801L106.432 168.982Z" fill="black"/>
<path d="M24.0555 160.397C24.0555 160.397 29.1883 159.575 32.268 163.207C32.268 163.207 30.0096 164.988 25.1505 162.521L24.0555 160.397Z" fill="black"/>
<path d="M23.5179 160.316C23.5179 160.316 20.2427 164.352 21.8558 168.845C21.8558 168.845 24.5249 167.776 24.8157 162.328L23.5179 160.316Z" fill="black"/>
<path d="M20.5751 153.682C20.5751 153.682 22.6282 149.911 30.8406 155.19C30.8406 155.19 29.7456 157.725 26.1185 157.519C22.4913 157.314 21.5332 155.669 20.5751 153.682Z" fill="black"/>
<path d="M20.0447 153.41C20.0447 153.41 15.7845 152.921 15.3715 162.685C15.3715 162.685 18.0723 163.246 19.9909 160.157C21.9096 157.069 21.1226 155.336 20.0447 153.41Z" fill="black"/>
<path d="M17.5638 145.621C17.5638 145.621 19.9591 138.974 28.6506 143.702C28.6506 143.702 26.6659 149.801 18.4535 147.882L17.5638 145.621Z" fill="black"/>
<path d="M14.8948 135.685C14.8948 135.685 19.4116 128.97 27.4187 135.196C27.4187 135.196 24.6128 141.5 15.5791 138.073L14.8948 135.685Z" fill="black"/>
<path d="M13.9366 126.229C13.9366 126.229 19.2063 120.059 27.1352 126.229C27.1352 126.229 22.1393 131.642 13.9366 127.805V126.229Z" fill="black"/>
<path d="M13.1155 117.044C13.1155 117.044 18.4536 110.603 26.0501 116.702C26.0501 116.702 20.0276 122.389 13.1155 118.552V117.044Z" fill="black"/>
<path d="M13.5945 108.89C13.5945 108.89 19.2161 100.599 26.3237 106.218C26.3237 106.218 20.3013 113.344 13.5945 110.466V108.89Z" fill="black"/>
<path d="M14.8948 99.3653C14.8948 99.3653 20.8488 91.1426 27.7609 97.4467C27.7609 97.4467 20.7119 104.573 14.8948 100.873V99.3653Z" fill="black"/>
<path d="M16.8795 90.8514C16.8795 90.8514 23.9285 83.123 30.078 86.2016C30.078 86.2016 22.7333 94.4097 16.5715 92.9022L16.8795 90.8514Z" fill="black"/>
<path d="M19.3432 82.7804C19.3432 82.7804 27.4774 73.3145 32.2093 76.4763C32.2093 76.4763 26.2162 83.818 18.7664 84.5522L19.3432 82.7804Z" fill="black"/>
<path d="M22.8995 73.4198C22.8995 73.4198 30.0194 65.6914 35.2206 67.61C35.2206 67.61 29.1297 75.6272 21.9438 75.8328L22.8995 73.4198Z" fill="black"/>
<path d="M26.1184 64.6635C26.1184 64.6635 33.9887 57.2631 37.4105 58.565C37.4105 58.565 31.7303 66.7878 25.7762 66.3081L26.1184 64.6635Z" fill="black"/>
<path d="M29.2665 56.5777C29.2665 56.5777 36.0417 47.7358 39.7398 48.421C39.7398 48.421 35.6311 56.3036 29.2665 57.4758V56.5777Z" fill="black"/>
<path d="M32.6835 45.6752C32.6835 45.6752 38.6717 38.8988 41.9078 38.9135C41.9078 38.9135 37.1808 47.9683 32.4366 47.8851L32.6835 45.6752Z" fill="black"/>
<path d="M34.7073 38.4167L40.4926 24.301C40.4926 24.301 40.781 37.0609 33.9716 41.0353L34.7073 38.4167Z" fill="black"/>
<path d="M37.0562 22.85C37.0562 22.85 38.0143 11.0616 37.3984 10.1023C37.3984 10.1023 41.5339 19.9035 37.0171 28.0577L37.0562 22.85Z" fill="black"/>
<path d="M17.339 145.464C17.339 145.464 11.3409 141.742 7.45715 150.848C7.45715 150.848 12.7952 154.397 18.0453 147.787L17.339 145.464Z" fill="black"/>
<path d="M14.7017 135.306C14.7017 135.306 7.34474 131.946 3.77625 141.453C3.77625 141.453 9.45895 145.369 15.3714 137.709L14.7017 135.306Z" fill="black"/>
<path d="M13.5944 126.794C13.5944 126.794 8.32478 120.625 0.395874 126.794C0.395874 126.794 5.39177 132.207 13.5944 128.37V126.794Z" fill="black"/>
<path d="M12.9346 117.044C12.9346 117.044 7.5965 110.603 0 116.702C0 116.702 6.02245 122.389 12.9346 118.552V117.044Z" fill="black"/>
<path d="M13.5945 109.125C13.5945 109.125 9.85004 99.8377 1.71094 103.832C1.71094 103.832 6.11045 112.067 13.2621 110.667L13.5945 109.125Z" fill="black"/>
<path d="M15.3665 99.3189C15.3665 99.3189 11.644 89.8701 3.39001 94.2506C3.39001 94.2506 8.44457 102.911 14.9998 100.777L15.3665 99.3189Z" fill="black"/>
<path d="M17.6737 90.8979C17.6737 90.8979 16.2072 80.5387 9.36353 79.6112C9.36353 79.6112 10.8154 90.5357 16.7523 92.7651L17.6737 90.8979Z" fill="black"/>
<path d="M19.5167 82.8C19.5167 82.8 18.9448 70.319 13.2865 69.8834C13.2865 69.8834 13.4771 79.3567 18.8788 84.5669L19.5167 82.8Z" fill="black"/>
<path d="M23.4861 73.0698C23.4861 73.0698 21.7996 62.691 16.3979 61.4233C16.3979 61.4233 17.0677 71.4742 22.9508 75.6173L23.4861 73.0698Z" fill="black"/>
<path d="M26.7588 64.7492C26.7588 64.7492 26.7026 53.9373 23.403 52.349C23.403 52.349 21.3572 62.138 25.8031 66.1294L26.7588 64.7492Z" fill="black"/>
<path d="M29.5183 56.4555C29.5183 56.4555 29.0564 45.323 25.6394 43.7543C25.6394 43.7543 24.4711 52.5643 29.0075 57.1847L29.5183 56.4555Z" fill="black"/>
<path d="M33.1601 46.5637C33.1601 46.5637 33.1406 37.5089 30.7013 35.3846C30.7013 35.3846 28.2767 45.3033 31.8867 48.3844L33.1601 46.5637Z" fill="black"/>
<path d="M34.4213 37.9714L32.048 22.9012C32.048 22.9012 28.8242 35.25 34.5338 40.6927L34.4213 37.9714Z" fill="black"/>
<path d="M34.8833 22.9919C34.8833 22.9919 28.7924 12.8604 28.917 11.7346C28.917 11.7346 29.5648 22.3532 37.2272 27.6417L34.8833 22.9919Z" fill="black"/>
<path d="M35.597 19.9989C35.597 19.9989 29.8483 5.6091 27.2477 4.44421C27.2477 4.44421 35.4601 8.6241 36.076 19.5878L35.597 19.9989Z" fill="black"/>
<path d="M32.4073 47.9709L32.0138 47.851C36.8655 32.01 38.0753 21.9102 35.4234 19.3773L35.7045 19.0787C38.5177 21.7511 37.3763 31.7408 32.4073 47.9709Z" fill="#444053"/>
<path d="M19.0474 85.0612L18.4657 84.8532C18.9814 83.402 19.5362 81.9287 20.118 80.4775C25.1823 67.8399 29.4938 56.0834 32.2582 47.058L32.7641 46.8132C29.9949 55.8558 25.7591 68.0626 20.6899 80.7173C20.1106 82.1416 19.5582 83.6075 19.0474 85.0612Z" fill="#444053"/>
<path d="M31.2879 172.252C31.2097 172.166 23.3468 163.3 17.8645 148.163C14.6522 139.302 12.8644 129.986 12.5679 120.563C12.1915 108.785 14.6602 95.6334 18.8886 83.6859L19.3481 84.2243C9.85491 111.039 13.6263 134.016 18.6295 147.853C24.0531 162.852 31.828 171.62 31.9038 171.708L31.2879 172.252Z" fill="#444053"/>
<path d="M154.161 153.427C154.161 153.427 148.621 160.199 153.02 170.436L108.78 189.647L104.535 190.537L102.58 181.972L103.887 171.163V165.255L154.161 153.427Z" fill="#D5D6DB"/>
<path d="M14.4597 149.052L75.6912 137.875L156.826 150.816L106.432 168.982L14.4597 149.052Z" fill="black"/>
<path d="M14.4597 149.052L75.6912 137.875L156.826 150.816L106.432 168.982L14.4597 149.052Z" fill="black"/>
<path d="M14.4598 149.049C14.4598 149.049 8.73307 159.913 15.3323 169.946L106.133 189.647C106.133 189.647 100.497 180.993 106.424 168.982L14.4598 149.049Z" fill="black"/>
<path opacity="0.1" d="M14.4598 149.049C14.4598 149.049 8.73307 159.913 15.3323 169.946L106.133 189.647C106.133 189.647 100.497 180.993 106.424 168.982L14.4598 149.049Z" fill="black"/>
<path opacity="0.1" d="M17.1655 152.816C17.1655 152.816 13.8927 160.764 17.1655 165.908Z" fill="black"/>
<path d="M106.133 189.647L156.826 167.989C156.826 167.989 159.661 168.6 157.828 170.68C155.995 172.761 107.111 191.727 107.111 191.727L15.3323 169.946L106.133 189.647Z" fill="black"/>
<path opacity="0.1" d="M106.133 189.647L156.826 167.989C156.826 167.989 159.661 168.6 157.828 170.68C155.995 172.761 107.111 191.727 107.111 191.727L15.3323 169.946L106.133 189.647Z" fill="black"/>
<path opacity="0.1" d="M101.978 171.17C101.978 171.17 97.0899 177.043 101.978 185.853Z" fill="black"/>
<path opacity="0.1" d="M125.644 171.071L103.718 178.395L103.795 178.627L125.722 171.303L125.644 171.071Z" fill="black"/>
<path opacity="0.1" d="M130.036 170.342L103.711 180.365L103.798 180.594L130.123 170.571L130.036 170.342Z" fill="black"/>
<path opacity="0.1" d="M134.07 170.307L103.858 182.688L103.951 182.915L134.162 170.533L134.07 170.307Z" fill="black"/>
<path opacity="0.1" d="M138.456 169.246L104.211 184.735L104.311 184.958L138.556 169.469L138.456 169.246Z" fill="black"/>
<path opacity="0.1" d="M142.14 169.251L104.482 185.732L104.58 185.957L142.238 169.476L142.14 169.251Z" fill="black"/>
<path opacity="0.1" d="M150.2 167.881L105.05 187.406L105.147 187.631L150.297 168.106L150.2 167.881Z" fill="black"/>
<path opacity="0.3" d="M37.2076 150.246L80.2251 141.191L106.432 146.208L71.1817 157.588L37.2076 150.246Z" fill="white"/>
<path d="M156.826 150.816C156.826 150.816 159.05 151.714 157.745 153.102C156.439 154.49 106.424 168.982 106.424 168.982L156.826 150.816Z" fill="black"/>
<path d="M178.43 129.89C178.43 129.89 172.891 136.659 177.291 146.898L133.051 166.109L128.806 167.005L126.85 158.439L128.177 147.632V141.717L178.43 129.89Z" fill="#D5D6DB"/>
<path d="M38.7305 125.512L99.9595 114.338L181.096 127.279L130.702 145.445L38.7305 125.512Z" fill="#3A3768"/>
<path d="M38.7206 125.512C38.7206 125.512 32.9915 136.375 39.5908 146.409L130.392 166.109C130.392 166.109 124.758 157.448 130.692 145.442L38.7206 125.512Z" fill="#3A3768"/>
<path opacity="0.1" d="M38.7206 125.512C38.7206 125.512 32.9915 136.375 39.5908 146.409L130.392 166.109C130.392 166.109 124.758 157.448 130.692 145.442L101.978 139.219L38.7206 125.512Z" fill="black"/>
<path opacity="0.1" d="M41.4337 129.278C41.4337 129.278 38.1634 137.224 41.4337 142.371Z" fill="black"/>
<path d="M130.402 166.109L181.096 144.451C181.096 144.451 183.929 145.063 182.096 147.143C180.263 149.223 131.379 168.189 131.379 168.189L39.6005 146.409L130.402 166.109Z" fill="#3A3768"/>
<path opacity="0.1" d="M130.402 166.109L181.096 144.451C181.096 144.451 183.929 145.063 182.096 147.143C180.263 149.223 131.379 168.189 131.379 168.189L39.6005 146.409L130.402 166.109Z" fill="black"/>
<path opacity="0.1" d="M126.247 147.632C126.247 147.632 121.358 153.506 126.247 162.316Z" fill="black"/>
<path opacity="0.1" d="M149.915 147.536L127.988 154.86L128.066 155.092L149.992 147.768L149.915 147.536Z" fill="black"/>
<path opacity="0.1" d="M154.31 146.806L127.984 156.829L128.071 157.057L154.396 147.034L154.31 146.806Z" fill="black"/>
<path opacity="0.1" d="M158.339 146.767L128.128 159.149L128.22 159.375L158.432 146.994L158.339 146.767Z" fill="black"/>
<path opacity="0.1" d="M162.728 145.707L128.483 161.196L128.584 161.419L162.829 145.93L162.728 145.707Z" fill="black"/>
<path opacity="0.1" d="M166.409 145.709L128.751 162.19L128.849 162.415L166.507 145.933L166.409 145.709Z" fill="black"/>
<path opacity="0.1" d="M174.471 144.339L129.32 163.864L129.417 164.089L174.568 144.564L174.471 144.339Z" fill="black"/>
<path opacity="0.45" d="M61.4783 126.708L104.496 117.654L130.702 122.671L95.4523 134.05L61.4783 126.708Z" fill="white"/>
<path d="M181.096 127.279C181.096 127.279 183.318 128.177 182.015 129.562C180.713 130.947 130.702 145.442 130.702 145.442L181.096 127.279Z" fill="#3A3768"/>
<path d="M180.727 102.963C180.727 102.963 175.186 115.118 179.586 125.355L135.346 139.182L131.11 140.08L129.155 131.515L130.463 120.705V114.79L180.727 102.963Z" fill="#D5D6DB"/>
<path d="M41.0353 98.5872L102.267 87.4106L183.404 100.352L133.007 118.518L41.0353 98.5872Z" fill="black"/>
<path d="M41.0353 98.5847C41.0353 98.5847 35.2988 109.448 41.8981 119.482L132.699 139.182C132.699 139.182 127.063 130.521 132.997 118.518L41.0353 98.5847Z" fill="black"/>
<path opacity="0.1" d="M41.0353 98.5847C41.0353 98.5847 35.2988 109.448 41.8981 119.482L132.699 139.182C132.699 139.182 127.063 130.521 132.997 118.518L41.0353 98.5847Z" fill="black"/>
<path opacity="0.1" d="M43.7411 102.351C43.7411 102.351 40.4683 110.3 43.7411 115.444Z" fill="black"/>
<path d="M132.709 139.182L183.401 122.908C183.401 122.908 186.236 123.52 184.403 125.6C182.57 127.68 133.687 141.262 133.687 141.262L41.9078 119.482L132.709 139.182Z" fill="black"/>
<path opacity="0.1" d="M132.709 139.182L183.401 122.908C183.401 122.908 186.236 123.52 184.403 125.6C182.57 127.68 133.687 141.262 133.687 141.262L41.9078 119.482L132.709 139.182Z" fill="black"/>
<path opacity="0.1" d="M128.554 120.705C128.554 120.705 123.665 126.579 128.554 135.389Z" fill="black"/>
<path opacity="0.1" d="M152.223 120.608L130.296 127.933L130.374 128.165L152.3 120.84L152.223 120.608Z" fill="black"/>
<path opacity="0.1" d="M156.616 119.879L130.291 129.902L130.378 130.131L156.703 120.108L156.616 119.879Z" fill="black"/>
<path opacity="0.1" d="M160.643 119.842L130.432 132.224L130.524 132.45L160.736 120.069L160.643 119.842Z" fill="black"/>
<path opacity="0.1" d="M165.036 118.78L130.791 134.269L130.891 134.492L165.136 119.003L165.036 118.78Z" fill="black"/>
<path opacity="0.1" d="M168.718 118.784L131.059 135.266L131.157 135.49L168.816 119.009L168.718 118.784Z" fill="black"/>
<path opacity="0.1" d="M176.779 117.416L131.628 136.941L131.725 137.166L176.876 117.64L176.779 117.416Z" fill="black"/>
<path opacity="0.3" d="M63.7832 99.7815L106.801 90.7267L133.007 95.7435L97.7572 107.123L63.7832 99.7815Z" fill="white"/>
<path d="M183.401 100.352C183.401 100.352 185.625 101.25 184.32 102.637C183.015 104.025 133.007 118.518 133.007 118.518L183.401 100.352Z" fill="black"/>
<path d="M75.872 26.0632C75.872 26.0632 66.5842 25.5028 67.6694 32.0271C67.6694 32.0271 67.4518 33.1798 68.4955 33.7035C68.4955 33.7035 68.5126 33.214 69.4487 33.3829C69.7828 33.4404 70.1226 33.4568 70.4606 33.4318C70.9163 33.4006 71.3495 33.222 71.6949 32.9228V32.9228C71.6949 32.9228 74.3078 31.8411 75.3245 27.5634C75.3245 27.5634 76.0773 26.631 76.0578 26.3911L74.4837 27.0617C74.4837 27.0617 75.019 28.1947 74.5986 29.1369C74.5986 29.1369 74.5473 27.1033 74.2442 27.1498C74.1831 27.1498 73.4303 27.5438 73.4303 27.5438C73.4303 27.5438 74.3518 29.5187 73.6552 30.9528C73.6552 30.9528 73.9191 28.5202 73.1419 27.6857L72.0371 28.3318C72.0371 28.3318 73.115 30.3703 72.3842 32.0345C72.3842 32.0345 72.5724 29.482 71.8049 28.4884L70.8028 29.2715C70.8028 29.2715 71.8171 31.2807 71.1988 32.661C71.1988 32.661 71.1181 29.69 70.5877 29.4649C70.5877 29.4649 69.7103 30.2382 69.5783 30.5563C69.5783 30.5563 70.2724 32.0247 69.8398 32.7858C69.8398 32.7858 69.5783 30.8059 69.351 30.7962C69.351 30.7962 68.4784 32.1079 68.388 32.9987C68.4302 32.1682 68.6889 31.3633 69.1383 30.664C68.6354 30.7593 68.1715 31.0001 67.8038 31.3566C67.8038 31.3566 67.9382 30.4291 69.3559 30.3483C69.3559 30.3483 70.0769 29.3523 70.27 29.2936C70.27 29.2936 68.8597 29.1736 68.0067 29.553C68.0067 29.553 68.7595 28.6793 70.5266 29.0635L71.5043 28.2559C71.5043 28.2559 69.6516 28.0112 68.8646 28.2828C68.8646 28.2828 69.7714 27.5095 71.7707 28.0724L72.8486 27.4288C72.8486 27.4288 71.2672 27.0886 70.3262 27.2109C70.3262 27.2109 71.3185 26.675 73.1639 27.255L73.9314 26.9099C73.9314 26.9099 72.7753 26.6823 72.4355 26.6456C72.0958 26.6089 72.0787 26.5159 72.0787 26.5159C72.8124 26.3953 73.5653 26.48 74.254 26.7607C74.254 26.7607 75.9038 26.166 75.872 26.0632Z" fill="black"/>
<path opacity="0.1" d="M206.538 52.88C206.538 52.88 197.25 52.3195 198.335 58.8439C198.335 58.8439 198.117 59.9965 199.161 60.5203C199.161 60.5203 199.178 60.0308 200.114 60.1997C200.449 60.2558 200.788 60.2722 201.126 60.2486C201.578 60.2153 202.006 60.0368 202.348 59.7396V59.7396C202.348 59.7396 204.964 58.6579 205.978 54.3801C205.978 54.3801 206.731 53.4477 206.711 53.2079L205.142 53.8784C205.142 53.8784 205.677 55.0115 205.257 55.9537C205.257 55.9537 205.206 53.92 204.905 53.9665C204.844 53.9665 204.089 54.3605 204.089 54.3605C204.089 54.3605 205.01 56.3355 204.316 57.7696C204.316 57.7696 204.58 55.337 203.8 54.5025L202.695 55.1486C202.695 55.1486 203.773 57.1871 203.042 58.8512C203.042 58.8512 203.231 56.2988 202.463 55.3052L201.464 56.0883C201.464 56.0883 202.475 58.0975 201.857 59.4777C201.857 59.4777 201.776 56.5068 201.246 56.2816C201.246 56.2816 200.371 57.055 200.237 57.3731C200.237 57.3731 200.931 58.8414 200.501 59.6025C200.501 59.6025 200.237 57.6227 200.012 57.6129C200.012 57.6129 199.139 58.9247 199.049 59.8154C199.091 58.9846 199.351 58.1795 199.802 57.4808C199.298 57.5763 198.833 57.817 198.465 58.1734C198.465 58.1734 198.601 57.2458 200.017 57.1651C200.017 57.1651 200.738 56.1691 200.931 56.1079C200.931 56.1079 199.523 55.9904 198.667 56.3697C198.667 56.3697 199.42 55.4961 201.187 55.8803L202.165 55.0727C202.165 55.0727 200.31 54.828 199.525 55.0996C199.525 55.0996 200.43 54.3263 202.431 54.8891L203.507 54.2455C203.507 54.2455 201.926 53.9054 200.985 54.0277C200.985 54.0277 201.977 53.4918 203.822 54.0718L204.592 53.7267C204.592 53.7267 203.434 53.4991 203.094 53.4624C202.754 53.4257 202.737 53.3327 202.737 53.3327C203.471 53.2105 204.224 53.2952 204.912 53.5774C204.912 53.5774 206.567 52.9827 206.538 52.88Z" fill="black"/>
<path opacity="0.1" d="M91.5149 66.3693C91.5149 66.3693 87.4673 57.9679 82.315 62.1086C82.315 62.1086 81.2029 62.4806 81.2566 63.6479C81.2566 63.6479 81.6844 63.4252 81.9899 64.3258C82.104 64.6442 82.255 64.9481 82.4396 65.2313C82.6897 65.6152 83.0577 65.9073 83.4882 66.0634C83.4882 66.0634 85.705 67.8205 89.931 66.6213C89.931 66.6213 91.1116 66.8245 91.3047 66.6825L89.9555 65.6376C89.9555 65.6376 89.2222 66.6581 88.2006 66.7486C88.2006 66.7486 89.9506 65.7134 89.7624 65.4736C89.7233 65.4246 89.0291 64.9523 89.0291 64.9523C89.0291 64.9523 87.7557 66.7217 86.167 66.8122C86.167 66.8122 88.4156 65.8578 88.7627 64.7688L87.6628 64.1178C87.6628 64.1178 86.409 66.056 84.6027 66.2273C84.6027 66.2273 86.9198 65.1481 87.4111 63.993L86.2428 63.5036C86.2428 63.5036 84.984 65.3683 83.4784 65.5029C83.4784 65.5029 86.0301 63.9832 85.9666 63.4081C85.9666 63.4081 84.8643 63.0214 84.5221 63.0581C84.5221 63.0581 83.5884 64.3772 82.7085 64.3772C82.7085 64.3772 84.3045 63.1805 84.2068 62.9872C84.2068 62.9872 82.6376 62.8648 81.8115 63.2319C82.5559 62.8614 83.3843 62.6927 84.2141 62.7425C83.8849 62.3494 83.4483 62.0611 82.9578 61.9128C82.9578 61.9128 83.8328 61.58 84.593 62.7767C84.593 62.7767 85.815 62.9211 85.9592 63.0606C85.9592 63.0606 85.3751 61.7733 84.6296 61.2129C84.6296 61.2129 85.7588 61.4405 86.2745 63.1707L87.46 63.6406C87.46 63.6406 86.778 61.8982 86.1499 61.3475C86.1499 61.3475 87.2644 61.7611 87.7508 63.7948L88.836 64.4213C88.836 64.4213 88.3643 62.8722 87.7973 62.1111C87.7973 62.1111 88.7481 62.718 89.1416 64.6122L89.8186 65.1163C89.8186 65.1163 89.452 63.993 89.3298 63.6798C89.2076 63.3665 89.2687 63.3029 89.2687 63.3029C89.7336 63.8839 90.0281 64.5829 90.1192 65.3219C90.1192 65.3219 91.4269 66.4427 91.5149 66.3693Z" fill="black"/>
<path opacity="0.1" d="M185.317 41.0109C185.317 41.0109 181.272 32.6095 176.117 36.7502C176.117 36.7502 175.008 37.1222 175.059 38.2895C175.059 38.2895 175.489 38.0693 175.792 38.9674C175.906 39.2871 176.058 39.5919 176.245 39.8753C176.494 40.2586 176.861 40.5498 177.291 40.705V40.705C177.291 40.705 179.51 42.4621 183.733 41.2654C183.733 41.2654 184.914 41.4661 185.11 41.3241L183.768 40.2767C183.768 40.2767 183.034 41.2996 182.015 41.3902C182.015 41.3902 183.763 40.3526 183.575 40.1127C183.536 40.0638 182.841 39.5915 182.841 39.5915C182.841 39.5915 181.57 41.3608 179.979 41.4514C179.979 41.4514 182.23 40.4969 182.577 39.4104L181.46 38.7643C181.46 38.7643 180.209 40.7001 178.4 40.8738C178.4 40.8738 180.717 39.7921 181.211 38.637L180.04 38.1476C180.04 38.1476 178.782 40.0148 177.278 40.147C177.278 40.147 179.828 38.6273 179.764 38.0546C179.764 38.0546 178.664 37.6655 178.322 37.7046C178.322 37.7046 177.388 39.0213 176.506 39.0213C176.506 39.0213 178.105 37.8246 178.007 37.6312C178.007 37.6312 176.438 37.5089 175.609 37.8759C176.353 37.5054 177.182 37.3366 178.012 37.3865C177.684 36.9932 177.248 36.7048 176.758 36.5569C176.758 36.5569 177.633 36.2241 178.393 37.4208C178.393 37.4208 179.615 37.5676 179.759 37.7071C179.759 37.7071 179.175 36.4174 178.427 35.857C178.427 35.857 179.556 36.087 180.072 37.827L181.26 38.2969C181.26 38.2969 180.578 36.552 179.95 36.0014C179.95 36.0014 181.064 36.4149 181.548 38.4486L182.636 39.0751C182.636 39.0751 182.162 37.5284 181.595 36.7649C181.595 36.7649 182.548 37.3718 182.939 39.266L183.616 39.7701C183.616 39.7701 183.252 38.6468 183.127 38.3336C183.003 38.0203 183.066 37.9592 183.066 37.9592C183.53 38.5407 183.823 39.2396 183.914 39.9781C183.914 39.9781 185.242 41.0892 185.317 41.0109Z" fill="black"/>
<path opacity="0.1" d="M198.245 82.5675C198.245 82.5675 194.199 74.1637 189.037 78.3044C189.037 78.3044 187.928 78.6764 187.979 79.8437C187.979 79.8437 188.409 79.6235 188.712 80.5216C188.825 80.8412 188.976 81.146 189.162 81.4295C189.411 81.8128 189.778 82.104 190.208 82.2592C190.208 82.2592 192.427 84.0187 196.653 82.8196C196.653 82.8196 197.832 83.0227 198.027 82.8783L196.678 81.8333C196.678 81.8333 195.945 82.8563 194.923 82.9468C194.923 82.9468 196.671 81.9092 196.482 81.6694C196.443 81.6204 195.749 81.1481 195.749 81.1481C195.749 81.1481 194.478 82.9175 192.887 83.0105C192.887 83.0105 195.138 82.0536 195.485 80.967L194.383 80.316C194.383 80.316 193.131 82.2543 191.323 82.4256C191.323 82.4256 193.64 81.3439 194.133 80.1888L192.963 79.6993C192.963 79.6993 191.704 81.5641 190.201 81.6987C190.201 81.6987 192.753 80.179 192.689 79.6039C192.689 79.6039 191.587 79.2148 191.244 79.2539C191.244 79.2539 190.311 80.5706 189.428 80.5706C189.428 80.5706 191.027 79.3739 190.929 79.1805C190.929 79.1805 189.36 79.0582 188.531 79.4252C189.277 79.0549 190.106 78.8862 190.936 78.9358C190.608 78.5419 190.171 78.2534 189.68 78.1062C189.68 78.1062 190.555 77.7709 191.315 78.9701C191.315 78.9701 192.537 79.1144 192.682 79.2539C192.682 79.2539 192.097 77.9667 191.352 77.4038C191.352 77.4038 192.481 77.6339 192.997 79.3739L194.182 79.8437C194.182 79.8437 193.5 78.0988 192.872 77.5507C192.872 77.5507 193.987 77.9618 194.471 79.9979L195.558 80.6219C195.558 80.6219 195.084 79.0753 194.517 78.3118C194.517 78.3118 195.47 78.9187 195.864 80.8153L196.541 81.3047C196.541 81.3047 196.174 80.1814 196.052 79.8682C195.93 79.5549 195.991 79.4938 195.991 79.4938C196.456 80.0747 196.75 80.7739 196.839 81.5127C196.839 81.5127 198.169 82.6409 198.245 82.5675Z" fill="black"/>
<path opacity="0.1" d="M49.3601 191.903C52.4635 191.903 54.9793 191.621 54.9793 191.274C54.9793 190.927 52.4635 190.645 49.3601 190.645C46.2567 190.645 43.741 190.927 43.741 191.274C43.741 191.621 46.2567 191.903 49.3601 191.903Z" fill="black"/>
<path opacity="0.1" d="M12.5239 181.213C15.6273 181.213 18.1431 180.932 18.1431 180.584C18.1431 180.237 15.6273 179.956 12.5239 179.956C9.42057 179.956 6.90479 180.237 6.90479 180.584C6.90479 180.932 9.42057 181.213 12.5239 181.213Z" fill="black"/>
<path opacity="0.1" d="M77.4387 199.002C80.5421 199.002 83.0579 198.721 83.0579 198.373C83.0579 198.026 80.5421 197.745 77.4387 197.745C74.3354 197.745 71.8196 198.026 71.8196 198.373C71.8196 198.721 74.3354 199.002 77.4387 199.002Z" fill="black"/>
<path opacity="0.1" d="M221.327 183.538C224.431 183.538 226.946 183.257 226.946 182.909C226.946 182.562 224.431 182.28 221.327 182.28C218.224 182.28 215.708 182.562 215.708 182.909C215.708 183.257 218.224 183.538 221.327 183.538Z" fill="black"/>
<path opacity="0.1" d="M174.568 180.487C177.671 180.487 180.187 180.205 180.187 179.858C180.187 179.51 177.671 179.229 174.568 179.229C171.465 179.229 168.949 179.51 168.949 179.858C168.949 180.205 171.465 180.487 174.568 180.487Z" fill="black"/>
<path opacity="0.1" d="M144.319 195.371C147.989 195.371 150.965 194.859 150.965 194.228C150.965 193.597 147.989 193.085 144.319 193.085C140.648 193.085 137.673 193.597 137.673 194.228C137.673 194.859 140.648 195.371 144.319 195.371Z" fill="black"/>
<path d="M147.283 182.741C147.283 182.741 138.03 187.527 142.811 193.166C142.811 193.166 143.26 194.389 144.561 194.304C144.561 194.304 144.302 193.829 145.294 193.45C145.647 193.313 145.983 193.135 146.294 192.919C146.714 192.628 147.028 192.208 147.188 191.722V191.722C147.188 191.722 149.08 189.187 147.613 184.495C147.613 184.495 147.804 183.169 147.638 182.954L146.514 184.498C146.514 184.498 147.675 185.278 147.809 186.426C147.809 186.426 146.587 184.5 146.342 184.713C146.289 184.757 145.785 185.557 145.785 185.557C145.785 185.557 147.799 186.925 147.948 188.702C147.948 188.702 146.814 186.213 145.59 185.858L144.888 187.111C144.888 187.111 147.088 188.452 147.332 190.469C147.332 190.469 146.054 187.912 144.749 187.395L144.233 188.719C144.233 188.719 146.355 190.07 146.55 191.749C146.55 191.749 144.776 188.942 144.138 189.03C144.138 189.03 143.737 190.273 143.791 190.657C143.791 190.657 145.289 191.661 145.316 192.647C145.316 192.647 143.933 190.897 143.72 191.012C143.72 191.012 143.632 192.772 144.057 193.687C144.057 193.687 143.324 192.38 143.444 191.012C143.015 191.392 142.707 191.889 142.556 192.441C142.556 192.441 142.158 191.475 143.471 190.584C143.471 190.584 143.595 189.216 143.747 189.047C143.747 189.047 142.327 189.742 141.723 190.594C141.723 190.594 141.945 189.324 143.871 188.692L144.36 187.351C144.36 187.351 142.434 188.169 141.84 188.888C141.84 188.888 142.268 187.628 144.512 187.023L145.177 185.8C145.177 185.8 143.466 186.377 142.63 187.023C142.63 187.023 143.277 185.939 145.382 185.44L145.922 184.669C145.922 184.669 144.68 185.112 144.333 185.271C143.986 185.43 143.918 185.352 143.918 185.352C144.552 184.815 145.323 184.464 146.145 184.339C146.145 184.339 147.369 182.824 147.283 182.741Z" fill="black"/>
<path d="M174.749 92.332C173.15 87.9833 164.351 87.5746 160.533 88.6832C157.82 89.4736 152.101 90.3644 149.046 90.8123L148.848 90.6238C149.244 90.5064 149.253 90.2176 149.205 89.7893C149.176 89.2249 149.184 88.6592 149.229 88.0958C151.101 88.6783 152.768 87.3005 152.768 87.3005C154.968 86.3216 154.376 82.1319 154.797 80.9866C155.112 80.1301 155.452 75.0838 155.603 72.5681H155.635L155.652 71.7238C155.674 71.3591 155.684 71.1462 155.684 71.1462C155.684 71.1462 155.899 64.9939 156.32 63.7482C156.711 62.6029 157.028 56.8323 157.077 55.917C157.077 55.8387 157.077 55.7971 157.077 55.7971L157.045 55.2636C157.067 54.8745 157.077 54.4413 157.075 53.9862C157.075 51.8938 156.857 49.2581 156.83 48.8323C156.83 48.7711 156.83 48.6977 156.83 48.6096C156.847 47.7163 156.735 43.2428 152.934 41.5517C151.534 40.9252 149.85 40.1788 148.22 39.452C147.799 35.8178 146.839 32.2033 146.922 28.5422C146.922 27.9916 146.971 27.4409 147.024 26.8927C147.024 27.0518 147.007 27.2133 147.005 27.3822C147.005 27.737 147.005 28.0943 147.005 28.4492C147.149 23.8704 148.877 19.2671 148.716 14.7862C148.701 15.2243 148.669 15.6648 148.628 16.1053C148.712 14.5897 148.554 13.0703 148.158 11.6048C148.012 11.0884 147.814 10.5549 147.391 10.2099C146.991 9.93198 146.533 9.75024 146.052 9.67883C144.895 9.38242 143.72 9.16331 142.534 9.02297C142.354 8.47081 142.087 7.95112 141.742 7.48366C139.264 4.07709 135.593 0.8761 131.252 0.141927C129.074 -0.22516 126.569 0.0807456 125.088 1.63964C124.933 1.77658 124.788 1.92375 124.653 2.08014C123.856 3.03212 123.514 4.28266 122.697 5.23219C122.644 5.29582 122.583 5.35455 122.524 5.41574C120.925 6.84737 118.435 7.14594 116.658 8.43074C116.345 8.66138 116.051 8.91759 115.78 9.19673C115.064 9.90714 114.422 10.6886 113.864 11.5289C113.065 12.6547 112.244 13.8269 111.99 15.1704C111.479 17.8624 113.309 20.4149 113.649 23.124C114.407 29.1858 107.707 34.5648 108.976 40.5459C109.314 42.0153 110.062 43.3585 111.132 44.4199C108.519 46.7888 106.295 49.0868 106.295 49.0868V49.2238H105.882L105.923 49.7133H105.882L106.109 52.3685L105.882 56.2352C105.882 56.2352 105.882 56.2768 105.882 56.3551V56.3747V56.4799C105.882 56.4799 105.882 56.5215 105.882 56.5998H105.896C105.972 58.0168 106.273 63.1119 106.629 64.1863C107.05 65.4319 107.263 71.5843 107.263 71.5843C107.263 71.5843 107.727 80.2793 108.152 81.4295C108.577 82.5797 107.974 86.7572 110.181 87.7434C110.827 88.2393 111.591 88.5566 112.398 88.6636C112.285 89.5789 112.356 90.2421 112.72 90.4501C112.876 90.5418 113.053 90.5924 113.234 90.5969C113.084 90.8193 112.951 91.0524 112.835 91.2944C111.959 91.2028 111.098 90.9997 110.274 90.6899C107.903 89.711 100.035 87.5085 97.7498 89.0576C95.4645 90.6067 89.9651 92.0114 92.5046 98.247C95.0441 104.483 96.2271 104.639 96.2271 104.639C97.0088 105.207 97.6945 105.897 98.2582 106.683C99.0208 107.83 106.126 110.456 107.903 110.456C108.658 110.445 109.413 110.482 110.164 110.569C110.164 110.569 108.235 112.262 108.492 113.246C108.749 114.23 107.905 122.105 107.905 122.105C107.905 122.105 109.861 124.078 110.697 121.491L110.726 121.53C110.882 121.743 111.728 122.705 113.319 121.491C113.97 120.996 114.662 120.557 115.387 120.179L123.091 119.088C123.894 119.037 124.7 119.032 125.503 119.071C126.725 119.171 127.926 118.447 128.681 117.886C130.277 118.493 132.071 119.156 132.924 119.399C134.654 119.888 142.608 122.024 144.468 121.356C144.854 121.202 145.198 120.957 145.47 120.642L147.244 120.698L146.413 120.864C146.413 120.864 148.031 120.891 150.231 120.921L150.138 120.975L152.898 120.95C156.935 120.987 161.472 120.999 162.068 120.864C163.002 120.656 167.854 120.803 169.283 120.864H169.682C169.682 120.864 175.013 119.8 172.813 114.384C171.121 110.224 165.923 109.015 163.615 108.682C164.266 108.552 164.825 108.452 165.197 108.393C166.808 108.149 169.936 106.68 170.19 106.179C170.444 105.677 173.067 104.221 173.744 103.391C174.421 102.561 176.354 96.6808 174.749 92.332ZM130.595 104.502L130.333 104.588L130.157 104.647L129.82 104.979C129.551 104.798 129.263 104.607 128.962 104.412C129.492 104.443 130.037 104.475 130.595 104.502Z" fill="url(#paint0_linear_380:263)"/>
<path d="M146.179 78.6984C146.179 78.6984 149.918 88.4874 152.045 87.5085C154.171 86.5296 153.594 82.3693 154 81.2289C154.406 80.0885 154.856 71.4399 154.856 71.4399C154.856 71.4399 155.061 65.3218 155.467 64.0835C155.843 62.9455 156.148 57.2068 156.2 56.3037C156.2 56.2254 156.2 56.1838 156.2 56.1838L155.797 49.0868L153.514 48.5166L148.22 50.4744L147.486 54.6665L147.2 56.3037L147.078 57.0012L146.179 78.6984Z" fill="#BE6F72"/>
<path opacity="0.1" d="M147.411 77.0588C147.411 77.0588 150.979 79.9833 152.055 80.2403C153.13 80.4972 153.79 82.7781 153.79 82.7781" fill="black"/>
<path d="M116.934 79.1267C116.934 79.1267 113.195 88.9157 111.068 87.9368C108.942 86.9579 109.519 82.7975 109.113 81.6571C108.707 80.5167 108.257 71.8682 108.257 71.8682C108.257 71.8682 108.052 65.75 107.646 64.5117C107.27 63.3738 106.964 57.635 106.913 56.732C106.913 56.6536 106.913 56.612 106.913 56.612L107.319 49.515L109.602 48.9448L114.896 50.9026L115.629 55.0947L115.915 56.732L116.037 57.4294L116.934 79.1267Z" fill="#BE6F72"/>
<path d="M141.286 26.741H132.939V39.7676H141.286V26.741Z" fill="#3E373A"/>
<path opacity="0.1" d="M141.286 26.741H132.939V39.7676H141.286V26.741Z" fill="black"/>
<path d="M115.468 88.8765C115.468 88.8765 112.615 92.0164 113.674 92.5866C114.732 93.1568 121.578 103.844 121.578 103.844C121.578 103.844 144.064 106.617 148.305 102.456C152.546 98.296 152.46 90.8637 152.46 90.8637C152.46 90.8637 149.053 91.5979 148.681 91.199C148.31 90.8001 146.269 88.8765 146.269 88.8765C146.269 88.8765 117.423 87.1243 115.468 88.8765Z" fill="#4B4B5B"/>
<path opacity="0.02" d="M115.468 88.8765C115.468 88.8765 112.615 92.0164 113.674 92.5866C114.732 93.1568 121.578 103.844 121.578 103.844C121.578 103.844 144.064 106.617 148.305 102.456C152.546 98.296 152.46 90.8637 152.46 90.8637C152.46 90.8637 149.053 91.5979 148.681 91.199C148.31 90.8001 146.269 88.8765 146.269 88.8765C146.269 88.8765 117.423 87.1243 115.468 88.8765Z" fill="black"/>
<path d="M155.948 49.1895L148.616 55.0629L146.399 55.2244L145.585 55.2832L131.915 56.2865L117.738 55.2489L115.629 55.0947L112.94 54.8989L107.319 49.515C107.319 49.515 111.298 45.247 114.783 42.3666C116.157 41.2286 117.455 40.3085 118.401 39.9463L118.562 39.89C119.157 39.6577 119.688 39.2869 120.112 38.8083C122.864 35.9671 125.408 28.9557 125.408 28.9557C125.408 28.9557 137.548 22.6761 136.082 30.9135C134.615 39.1509 141.54 37.1148 141.54 37.1148L143.823 38.1574L144.725 38.5709L147.024 39.6257L152.213 42.0093C156.285 43.8864 155.948 49.1895 155.948 49.1895Z" fill="#BE6F72"/>
<path opacity="0.1" d="M131.345 35.6637C137.375 35.6637 142.263 30.7694 142.263 24.7319C142.263 18.6944 137.375 13.8 131.345 13.8C125.315 13.8 120.427 18.6944 120.427 24.7319C120.427 30.7694 125.315 35.6637 131.345 35.6637Z" fill="black"/>
<path opacity="0.1" d="M155.965 56.9767H106.913C106.913 56.8984 106.913 56.8568 106.913 56.8568L107.319 49.7598C107.319 49.7598 111.298 45.4918 114.783 42.6114L145.58 41.3878L147.012 39.8754L152.201 42.259C156.276 44.1336 155.948 49.4367 155.948 49.4367C155.948 49.4367 156.505 55.5818 155.965 56.9767Z" fill="black"/>
<path d="M155.965 56.732H106.913C106.913 56.6536 106.913 56.612 106.913 56.612L107.319 49.515C107.319 49.515 111.298 45.247 114.783 42.3666L145.58 41.143L147.012 39.6306L152.201 42.0142C156.276 43.8888 155.948 49.192 155.948 49.192C155.948 49.192 156.505 55.337 155.965 56.732Z" fill="#E7C7CA"/>
<path opacity="0.1" d="M123.482 36.8311C123.482 36.8311 131.22 46.7033 141.527 36.628C151.835 26.5527 142.669 59.101 142.669 59.101L120.427 61.744L123.482 36.8311Z" fill="black"/>
<path d="M123.482 37.3205C123.482 37.3205 131.22 47.1926 141.527 37.1173C151.835 27.042 142.669 59.5904 142.669 59.5904L120.427 62.2334L123.482 37.3205Z" fill="#E7C7CA"/>
<path opacity="0.1" d="M144.712 39.0531L145.531 51.5561L146.409 55.7164L147.078 58.8978C147.078 58.8978 148.789 83.3702 148.3 84.5938C147.812 85.8175 148.545 86.7964 148.647 87.4473C148.75 88.0983 148.545 89.733 148.625 90.4672C148.706 91.2014 148.625 91.5269 146.753 91.265C144.881 91.0032 142.271 90.548 142.271 90.548C142.271 90.548 135.671 91.0374 133.391 90.2225C131.11 89.4076 126.792 89.4051 126.792 89.4051C126.792 89.4051 120.273 89.5691 118.156 89.3244C116.04 89.0796 114.896 91.9356 113.512 91.1182C112.129 90.3008 115.14 82.3913 116.118 80.1056C117.096 77.8199 114.815 72.0297 114.815 72.0297L117.748 55.7384L118.401 52.0455V40.4358L118.562 40.3795C119.157 40.1472 119.688 39.7764 120.112 39.2978L120.845 50.981L143.82 51.7983V38.6493" fill="black"/>
<path d="M144.712 38.5637L145.531 51.0667L146.409 55.227L147.078 58.4084C147.078 58.4084 148.789 82.8808 148.3 84.1045C147.812 85.3281 148.545 86.307 148.647 86.9579C148.75 87.6089 148.545 89.2437 148.625 89.9778C148.706 90.712 148.625 91.0375 146.753 90.7756C144.881 90.5138 142.271 90.0586 142.271 90.0586C142.271 90.0586 135.671 90.548 133.391 89.7331C131.11 88.9182 126.792 88.9157 126.792 88.9157C126.792 88.9157 120.273 89.0797 118.156 88.835C116.04 88.5903 114.896 91.4462 113.512 90.6288C112.129 89.8114 115.14 81.9019 116.118 79.6162C117.096 77.3305 114.815 71.5403 114.815 71.5403L117.748 55.249L118.401 51.5561V39.9464L118.562 39.8901C119.157 39.6578 119.688 39.287 120.112 38.8084L120.845 50.4916L143.82 51.3089V38.1599" fill="#E7C7CA"/>
<path opacity="0.1" d="M147.354 12.4711C147.215 11.9596 147.022 11.4286 146.621 11.086C146.238 10.8108 145.796 10.6297 145.331 10.5574C144.216 10.2639 143.082 10.0464 141.938 9.90641C141.775 9.363 141.527 8.84856 141.205 8.38178C138.809 4.99479 135.265 1.80114 131.096 1.07921C128.913 0.699884 126.383 1.04005 124.985 2.76291C124.218 3.70999 123.888 4.96543 123.113 5.89538C121.62 7.70145 118.924 7.92414 117.042 9.32152C116.037 10.0557 115.309 11.1202 114.597 12.153C113.828 13.2714 113.036 14.4363 112.791 15.7725C112.302 18.4424 114.065 20.9875 114.39 23.6819C115.123 29.7095 108.67 35.0567 109.89 41.0035C110.601 44.4713 113.801 46.9136 117.11 48.1519C118.276 48.59 119.608 49.0256 120.153 50.1464C120.397 50.6359 120.439 51.2012 120.669 51.6955C121.441 53.345 123.981 53.4086 125.345 52.207C126.708 51.0054 127.139 49.0623 127.3 47.2489C127.955 39.3296 124.787 31.5058 125.156 23.5669C125.266 21.1662 125.941 18.4424 128.089 17.3558C130.981 15.8875 134.459 18.3347 137.641 17.8673C139.147 21.536 139.467 25.5851 138.555 29.4452C138.049 31.5572 137.174 33.6055 137.111 35.7836C137.015 39.0996 138.802 42.1293 140.347 45.061C140.678 45.6093 140.9 46.2169 140.999 46.85C141.024 47.4923 140.904 48.132 140.65 48.7221C139.777 51.0739 138.272 53.2569 138.101 55.7604C138.051 56.0526 138.116 56.3529 138.284 56.5974C138.456 56.7605 138.678 56.8605 138.915 56.8812C141.554 57.334 143.837 54.992 145.125 52.6402C146.561 50.0426 147.398 47.156 147.574 44.1923C147.841 39.2097 146.056 34.3079 146.166 29.3204C146.294 23.6501 148.853 17.9407 147.354 12.4711Z" fill="black"/>
<path d="M147.599 12.2264C147.459 11.7149 147.266 11.1838 146.866 10.8412C146.483 10.566 146.041 10.385 145.575 10.3126C144.46 10.0191 143.327 9.80162 142.183 9.66166C142.019 9.11825 141.772 8.60381 141.449 8.13703C139.054 4.75004 135.51 1.55639 131.34 0.834456C129.158 0.455133 126.628 0.7953 125.23 2.51816C124.462 3.46524 124.132 4.72068 123.357 5.65063C121.864 7.45669 119.168 7.67939 117.286 9.07677C116.282 9.81094 115.553 10.8755 114.842 11.9082C114.072 13.0266 113.28 14.1915 113.036 15.5277C112.547 18.1976 114.309 20.7428 114.634 23.4372C115.367 29.4647 108.915 34.812 110.134 40.7588C110.846 44.2265 114.045 46.6689 117.355 47.9072C118.52 48.3452 119.853 48.7808 120.398 49.9017C120.642 50.3911 120.684 50.9564 120.913 51.4508C121.686 53.1002 124.225 53.1638 125.589 51.9622C126.953 50.7607 127.383 48.8175 127.544 47.0041C128.199 39.0849 125.032 31.261 125.401 23.3222C125.511 20.9214 126.185 18.1976 128.334 17.1111C131.225 15.6427 134.703 18.09 137.886 17.6225C139.392 21.2913 139.711 25.3403 138.8 29.2004C138.294 31.3124 137.419 33.3608 137.355 35.5388C137.26 38.8548 139.047 41.8845 140.591 44.8163C140.923 45.3645 141.144 45.9722 141.244 46.6052C141.268 47.2476 141.149 47.8872 140.894 48.4774C140.022 50.8292 138.516 53.0121 138.345 55.5156C138.295 55.8079 138.361 56.1082 138.528 56.3526C138.701 56.5157 138.923 56.6158 139.159 56.6365C141.799 57.0892 144.082 54.7472 145.37 52.3954C146.806 49.7979 147.643 46.9113 147.819 43.9475C148.085 38.9649 146.301 34.0631 146.411 29.0756C146.538 23.4054 149.097 17.696 147.599 12.2264Z" fill="#3E373A"/>
<path d="M142.2 120.583L151.896 120.894L150.505 113.694L143.077 114.401L142.2 120.583Z" fill="#C3C7D9"/>
<path d="M172.244 103.518C171.591 104.333 169.066 105.802 168.822 106.291C168.577 106.781 165.564 108.249 164.014 108.494C162.464 108.738 157.578 109.801 156.681 110.371C156.039 110.782 150.879 112.084 147.489 112.806C146.571 113.023 145.641 113.191 144.705 113.307C143.239 113.388 127.19 107.923 127.19 107.923L130.284 104.742L130.455 104.683C131.33 104.387 135.373 103.019 137.617 102.368C140.144 101.634 143.077 98.6166 143.077 98.6166C143.077 98.6166 147.394 97.1483 147.966 96.9843C148.537 96.8203 146.499 91.2749 146.499 91.2749C146.499 91.2749 155.868 89.9729 159.534 88.8692C163.2 87.7655 171.674 88.1742 173.221 92.4985C174.768 96.8228 172.906 102.704 172.244 103.518Z" fill="#4B4B5B"/>
<path d="M129.551 117.304C129.551 117.304 127.679 119.262 125.804 119.1C123.929 118.938 117.374 119.589 117.374 119.589C116.186 120.064 115.074 120.709 114.072 121.506C112.54 122.715 111.726 121.75 111.574 121.545L111.547 121.506C110.731 124.078 108.859 122.117 108.859 122.117C108.859 122.117 109.673 114.286 109.423 113.307C109.174 112.328 111.034 110.647 111.034 110.647L113.234 110.087L118.806 108.658L126.792 111.43L129.551 117.304Z" fill="#E7C7CA"/>
<path opacity="0.1" d="M113.224 110.087L111.574 121.545L111.547 121.505C110.731 124.078 108.859 122.117 108.859 122.117C108.859 122.117 109.673 114.286 109.423 113.307C109.174 112.328 111.034 110.647 111.034 110.647L113.224 110.087Z" fill="black"/>
<path opacity="0.1" d="M124.756 77.4944C124.756 77.4944 129.072 78.9627 132.821 77.4944Z" fill="black"/>
<path opacity="0.1" d="M139.491 80.2695C139.491 80.2695 141.283 81.1652 142.669 80.2695Z" fill="black"/>
<path opacity="0.1" d="M139.491 82.3938C139.491 82.3938 142.505 82.7976 143.077 81.9827Z" fill="black"/>
<path opacity="0.1" d="M138.514 86.9578C138.514 86.9578 144.175 86.2237 145.58 85.2448Z" fill="black"/>
<path opacity="0.1" d="M121.241 85.2448C121.241 85.2448 124.418 87.0386 126.782 86.9578Z" fill="black"/>
<path opacity="0.1" d="M147.486 112.806C146.568 113.023 145.639 113.191 144.702 113.307C143.236 113.388 127.188 107.923 127.188 107.923L130.282 104.742L130.453 104.683C130.942 105.028 131.343 105.325 131.629 105.55C132.975 106.612 134.276 105.224 134.764 105.224C135.253 105.224 139.489 108.731 139.489 108.731C139.489 108.731 143.4 109.629 144.052 110.444C144.705 111.259 146.985 111.098 147.391 111.668C147.513 111.844 147.528 112.277 147.486 112.806Z" fill="black"/>
<path d="M117.374 91.6076C117.374 91.6076 113.419 91.8352 111.139 90.8734C108.859 89.9116 101.282 87.692 99.082 89.2509C96.8822 90.8098 91.5857 92.1876 94.0298 98.3889C96.474 104.59 97.6154 104.752 97.6154 104.752C98.3717 105.32 99.0319 106.005 99.5708 106.783C100.304 107.926 107.148 110.535 108.859 110.535C110.57 110.535 113.583 110.535 117.819 113.471C122.055 116.408 125.885 116.736 125.885 116.736C125.885 116.736 131.262 118.938 132.936 119.428C134.61 119.917 142.261 122.037 144.055 121.386C145.849 120.735 146.988 116.653 146.988 116.653C146.988 116.653 147.802 112.982 147.394 112.412C146.985 111.841 144.705 112.003 144.055 111.188C143.405 110.373 139.492 109.475 139.492 109.475C139.492 109.475 135.266 105.966 134.777 105.966C134.288 105.966 132.988 107.351 131.641 106.291C128.958 104.302 126.14 102.502 123.206 100.907C120.112 99.2748 117.374 91.6076 117.374 91.6076Z" fill="#4B4B5B"/>
<path opacity="0.1" d="M109.423 93.9741C110.127 93.8301 110.855 93.8508 111.55 94.0346C112.245 94.2184 112.888 94.5603 113.429 95.0338C115.385 96.6661 121.964 99.943 121.964 99.943" fill="black"/>
<path opacity="0.1" d="M158.312 93.8713C158.312 93.8713 149.593 95.1929 147.966 96.9867Z" fill="black"/>
<path d="M168.333 120.894H167.949C166.571 120.845 161.9 120.698 161 120.894C159.942 121.139 145.927 120.894 145.927 120.894L148.667 120.324C148.667 120.324 147.65 116.756 148.295 116.459C148.295 116.459 144.629 114.042 147.394 112.409C150.158 110.777 153.137 111.465 153.137 111.465L160.076 109.11L161.408 108.658C161.408 108.658 169.23 109.066 171.346 114.45C173.463 119.834 168.333 120.894 168.333 120.894Z" fill="#E7C7CA"/>
<path opacity="0.1" d="M168.333 120.894H167.949C170.225 119.014 175.372 113.293 160.076 109.123L161.408 108.67C161.408 108.67 169.23 109.078 171.347 114.462C173.463 119.846 168.333 120.894 168.333 120.894Z" fill="black"/>
<path d="M153.954 114.551C154.19 114.551 154.381 114.359 154.381 114.122C154.381 113.886 154.19 113.694 153.954 113.694C153.718 113.694 153.526 113.886 153.526 114.122C153.526 114.359 153.718 114.551 153.954 114.551Z" fill="#4B4B5B"/>
<path d="M151.468 115.258C151.704 115.258 151.896 115.066 151.896 114.83C151.896 114.593 151.704 114.401 151.468 114.401C151.232 114.401 151.04 114.593 151.04 114.83C151.04 115.066 151.232 115.258 151.468 115.258Z" fill="#4B4B5B"/>
<g opacity="0.1">
<path opacity="0.1" d="M139.357 24.328C139.452 21.6363 138.974 18.9551 137.954 16.4626C134.777 16.9374 131.296 14.4828 128.402 15.9511C126.261 17.0377 125.589 19.7615 125.469 22.1622C125.44 22.7961 125.435 23.4299 125.447 24.0637C125.447 23.8386 125.447 23.611 125.469 23.3858C125.582 20.9851 126.254 18.2613 128.402 17.1747C131.296 15.7064 134.772 18.1536 137.954 17.6862C138.818 19.7975 139.293 22.0475 139.357 24.328V24.328Z" fill="black"/>
<path opacity="0.1" d="M114.734 23.8802C114.776 23.3469 114.766 22.8109 114.703 22.2797C114.444 20.1261 113.268 18.068 113.055 15.9683C112.781 18.5012 114.392 20.9337 114.703 23.5033C114.734 23.6355 114.734 23.7529 114.734 23.8802Z" fill="black"/>
<path opacity="0.1" d="M127.613 45.8419C127.461 47.6577 127.034 49.5984 125.657 50.8024C124.281 52.0065 121.747 51.9404 120.982 50.291C120.737 49.8015 120.701 49.2313 120.464 48.7419C119.921 47.621 118.586 47.1854 117.421 46.7474C114.109 45.5066 110.914 43.0765 110.203 39.599C110.139 39.2839 110.096 38.9651 110.073 38.6445C110.013 39.373 110.057 40.1064 110.203 40.8226C110.914 44.2903 114.114 46.7302 117.421 47.971C118.586 48.409 119.921 48.8446 120.464 49.9655C120.708 50.4549 120.75 51.0202 120.982 51.5146C121.752 53.164 124.291 53.2277 125.657 52.0261C127.024 50.8245 127.449 48.8814 127.613 47.0655C127.687 46.1097 127.713 45.1508 127.689 44.1924C127.689 44.748 127.657 45.2961 127.613 45.8419Z" fill="black"/>
<path opacity="0.1" d="M146.492 27.9157C146.492 28.2706 146.492 28.623 146.492 28.9754C146.628 24.4235 148.295 19.8472 148.132 15.3907C148.005 19.5119 146.584 23.7261 146.492 27.9157Z" fill="black"/>
<path opacity="0.1" d="M141.246 46.3289C141.307 46.0385 141.326 45.7411 141.303 45.4454C141.204 44.8121 140.983 44.2042 140.65 43.6565C139.237 40.9645 137.627 38.2089 137.436 35.2208C137.436 35.3481 137.419 35.4655 137.416 35.6026C137.319 38.9162 139.105 41.9483 140.65 44.8801C140.913 45.3342 141.113 45.8214 141.246 46.3289V46.3289Z" fill="black"/>
<path opacity="0.1" d="M147.897 42.7877C147.715 45.7526 146.872 48.639 145.431 51.2355C144.14 53.5873 141.86 55.9294 139.218 55.4766C138.981 55.4562 138.758 55.3551 138.587 55.1903C138.537 55.1342 138.499 55.0695 138.472 54.9994C138.443 55.1903 138.418 55.3836 138.404 55.5794C138.353 55.8709 138.419 56.1706 138.587 56.4139C138.758 56.5788 138.981 56.6798 139.218 56.7002C141.86 57.153 144.14 54.811 145.431 52.4592C146.872 49.8626 147.715 46.9762 147.897 44.0113C147.926 43.4386 147.929 42.8684 147.912 42.2982C147.907 42.4622 147.907 42.6237 147.897 42.7877Z" fill="black"/>
</g>
<path opacity="0.1" d="M148.295 116.459C148.295 116.459 154.482 119.058 158.561 113.307" stroke="black" stroke-miterlimit="10"/>
<path opacity="0.1" d="M149.513 121.002C149.513 121.002 154.565 117.713 161 120.894" stroke="black" stroke-miterlimit="10"/>
<path opacity="0.1" d="M115.695 120.255C115.695 120.255 117.816 115.463 123.482 119.117" stroke="black" stroke-miterlimit="10"/>
<path opacity="0.1" d="M108.817 49.3926L113.143 45.477C113.143 45.477 129.918 44.3758 130.612 50.0852C130.612 50.0852 136.559 43.3161 149.065 44.8236L154.357 49.0427L139.731 55.4691L125.518 60.4052L115.05 55.7138L108.817 49.3926Z" fill="black"/>
<path d="M108.817 49.6375L113.143 45.7219C113.143 45.7219 129.918 44.6206 130.612 50.3301C130.612 50.3301 136.559 43.561 149.065 45.0685L154.357 49.2875L139.731 55.714L125.518 60.6501L115.05 55.9587L108.817 49.6375Z" fill="#D5D6DB"/>
<path opacity="0.1" d="M106.903 50.1268L108.817 73.0501L129.104 74.0706L128.224 51.2452L128.207 50.861L106.903 50.1268Z" fill="black"/>
<path d="M106.903 49.6375L108.817 72.5608L129.104 73.5813L128.224 50.7558L128.207 50.3716L106.903 49.6375Z" fill="black"/>
<path opacity="0.1" d="M155.286 49.6375L134.359 52.7797V75.8058L154.809 72.8471L155.286 49.6375Z" fill="black"/>
<path d="M155.286 49.1479L134.359 52.2902V75.3163L154.809 72.3576L155.286 49.1479Z" fill="black"/>
<path opacity="0.3" d="M150.351 54.7668L139.047 56.0247L139.293 59.8816L150.344 58.6726L150.351 54.7668Z" fill="white"/>
<path d="M109.917 84.8362L111.068 87.9369C111.068 87.9369 112.779 89.4052 114.651 88.671C116.524 87.9369 118.156 87.5722 118.97 86.8576C119.784 86.143 120.926 82.5529 120.926 82.5529C120.926 82.5529 122.067 78.6373 123.206 77.6584C124.345 76.6795 127.361 63.1928 123.206 64.5119C119.051 65.8309 115.873 78.0671 115.873 78.0671C115.873 78.0671 115.14 78.9628 114.082 79.046C113.024 79.1292 110.904 78.8821 110.496 79.7802C110.088 80.6783 108.695 83.0424 109.917 84.8362Z" fill="#BE6F72"/>
<path opacity="0.1" d="M134.359 52.7773C133.287 53.0191 132.174 53.0064 131.108 52.7404C130.043 52.4744 129.054 51.9624 128.221 51.2454L129.104 74.0684C129.104 74.0684 131.181 76.3198 134.359 75.8059V52.7773Z" fill="black"/>
<path d="M134.359 52.2878C133.287 52.5296 132.174 52.5169 131.108 52.2509C130.043 51.9849 129.054 51.4729 128.221 50.7559L129.104 73.5788C129.104 73.5788 131.181 75.8303 134.359 75.3164V52.2878Z" fill="black"/>
<path opacity="0.1" d="M134.359 52.2878C133.287 52.5296 132.174 52.5169 131.108 52.2509C130.043 51.9849 129.054 51.4729 128.221 50.7559L129.104 73.5788C129.104 73.5788 131.181 75.8303 134.359 75.3164V52.2878Z" fill="black"/>
<path opacity="0.1" d="M134.848 49.7157C134.848 49.7157 143.361 47.1094 145.58 47.4765Z" fill="black"/>
<path opacity="0.1" d="M125.325 48.5778C125.325 48.5778 117.073 46.62 115.695 47.1755Z" fill="black"/>
<path opacity="0.1" d="M140.215 50.0411C140.215 50.0411 145.907 47.9512 147.965 48.9448Z" fill="black"/>
<path opacity="0.1" d="M137.348 102.468C138.23 101.805 139.169 101.221 140.154 100.724C141.62 100.016 144.309 98.1809 144.309 98.1809" fill="black"/>
<path opacity="0.1" d="M115.695 77.4944C115.695 77.4944 112.124 80.4188 111.051 80.6758C109.978 80.9328 109.316 83.2136 109.316 83.2136" fill="black"/>
<path d="M153.186 84.4005L152.047 87.5085C152.047 87.5085 150.336 88.9769 148.462 88.2427C146.587 87.5085 144.959 87.1439 144.143 86.4293C143.326 85.7147 142.187 82.1246 142.187 82.1246C142.187 82.1246 141.048 78.209 139.907 77.2301C138.766 76.2512 135.752 62.7644 139.907 64.0835C144.062 65.4026 147.24 77.6388 147.24 77.6388C147.24 77.6388 147.973 78.5345 149.031 78.6177C150.089 78.7009 152.209 78.4537 152.617 79.3519C153.025 80.25 154.408 82.614 153.186 84.4005Z" fill="#BE6F72"/>
<path opacity="0.1" d="M151.189 78.6837C151.189 78.6837 153.524 80.1863 153.514 81.9826Z" fill="black"/>
<path d="M131.384 35.1277C137.414 35.1277 142.302 30.2334 142.302 24.1959C142.302 18.1584 137.414 13.264 131.384 13.264C125.354 13.264 120.466 18.1584 120.466 24.1959C120.466 30.2334 125.354 35.1277 131.384 35.1277Z" fill="#BE6F72"/>
<path d="M124.528 21.2616C125.853 21.0536 127.014 20.2827 128.28 19.8397C131.113 18.8437 134.246 19.5265 137.113 20.4246C138.213 20.7697 139.33 21.1588 140.484 21.1588C141.637 21.1588 142.862 20.6865 143.451 19.6905C143.994 18.7752 143.889 17.5858 143.431 16.6241C142.974 15.6623 142.209 14.889 141.437 14.1597C138.895 11.7565 135.742 9.50992 132.254 9.75464C130.851 9.85498 129.509 10.3567 128.219 10.9122C126.594 11.6133 125.012 12.4109 123.482 13.3007C122.306 13.9835 120.129 14.8963 119.452 16.1444C117.912 18.9563 122.133 21.6385 124.528 21.2616Z" fill="#3E373A"/>
<path opacity="0.1" d="M143.451 18.6627C142.862 19.6587 141.638 20.1311 140.484 20.1311C139.33 20.1311 138.213 19.7566 137.111 19.4116C134.244 18.5134 131.113 17.8282 128.278 18.8267C127.014 19.2696 125.851 20.0503 124.526 20.2461C122.595 20.5495 119.486 18.8658 119.149 16.7245C118.77 19.1987 122.375 21.318 124.526 20.9802C125.851 20.7722 127.014 20.0013 128.278 19.5608C131.113 18.5624 134.244 19.2476 137.111 20.1457C138.213 20.4908 139.328 20.8799 140.484 20.8652C141.64 20.8505 142.862 20.3954 143.451 19.3969C143.756 18.8537 143.877 18.2256 143.793 17.6079C143.755 17.9798 143.639 18.3394 143.451 18.6627Z" fill="black"/>
<path d="M232.055 151.291C232.055 151.291 233.504 153.188 231.385 156.053C229.266 158.919 227.521 161.337 228.225 163.123C228.225 163.123 231.422 157.803 234.022 157.727C236.623 157.651 234.912 154.49 232.055 151.291Z" fill="black"/>
<path opacity="0.1" d="M232.055 151.291C232.181 151.474 232.281 151.674 232.351 151.886C234.888 154.871 236.242 157.659 233.8 157.727C231.527 157.793 228.802 161.863 228.149 162.888C228.17 162.971 228.195 163.053 228.225 163.133C228.225 163.133 231.422 157.813 234.023 157.737C236.623 157.661 234.912 154.49 232.055 151.291Z" fill="black"/>
<path d="M234.743 153.709C234.743 154.377 234.668 154.918 234.577 154.918C234.487 154.918 234.409 154.377 234.409 153.709C234.409 153.041 234.501 153.357 234.594 153.357C234.687 153.357 234.743 153.041 234.743 153.709Z" fill="#FFD037"/>
<path d="M235.67 154.507C235.086 154.825 234.575 155.018 234.531 154.937C234.487 154.857 234.924 154.531 235.509 154.203C236.093 153.875 235.863 154.115 235.907 154.203C235.951 154.291 236.256 154.186 235.67 154.507Z" fill="#FFD037"/>
<path d="M224.395 151.291C224.395 151.291 222.945 153.188 225.065 156.053C227.184 158.919 228.929 161.337 228.222 163.123C228.222 163.123 225.028 157.803 222.425 157.727C219.822 157.651 221.545 154.49 224.395 151.291Z" fill="black"/>
<path opacity="0.1" d="M224.395 151.291C224.269 151.474 224.169 151.674 224.099 151.886C221.562 154.871 220.208 157.659 222.65 157.727C224.92 157.793 227.648 161.863 228.301 162.888C228.28 162.972 228.254 163.054 228.222 163.133C228.222 163.133 225.028 157.813 222.425 157.737C219.822 157.661 221.545 154.49 224.395 151.291Z" fill="black"/>
<path d="M221.701 153.709C221.701 154.377 221.775 154.918 221.867 154.918C221.96 154.918 222.036 154.377 222.036 153.709C222.036 153.041 221.941 153.357 221.85 153.357C221.76 153.357 221.701 153.041 221.701 153.709Z" fill="#FFD037"/>
<path d="M220.777 154.507C221.362 154.825 221.872 155.018 221.916 154.937C221.96 154.857 221.523 154.531 220.939 154.203C220.355 153.875 220.584 154.115 220.54 154.203C220.496 154.291 220.191 154.186 220.777 154.507Z" fill="#FFD037"/>
<path opacity="0.1" d="M228.225 177.641C236.594 177.641 243.379 176.599 243.379 175.313C243.379 174.028 236.594 172.986 228.225 172.986C219.856 172.986 213.071 174.028 213.071 175.313C213.071 176.599 219.856 177.641 228.225 177.641Z" fill="black"/>
<path d="M236.024 160.566L235.951 161.158L235.848 161.995L235.807 162.345L235.704 163.182L235.66 163.532L235.56 164.367L234.399 173.886C234.296 174.736 232.91 175.399 231.236 175.399H225.211C223.537 175.399 222.154 174.736 222.048 173.886L220.887 164.367L220.785 163.532L220.743 163.182L220.641 162.345L220.597 161.995L220.496 161.158L220.423 160.566C220.367 160.077 221.115 159.68 222.063 159.68H234.387C235.333 159.68 236.083 160.084 236.024 160.566Z" fill="#65617D"/>
<path d="M235.951 161.158L235.851 161.995H220.599L220.496 161.158H235.951Z" fill="#9D9CB5"/>
<path d="M235.807 162.345L235.706 163.182H220.743L220.641 162.345H235.807Z" fill="#9D9CB5"/>
<path d="M235.662 163.532L235.56 164.369H220.887L220.787 163.532H235.662Z" fill="#9D9CB5"/>
</g>
<defs>
<linearGradient id="paint0_linear_380:263" x1="133.608" y1="122.832" x2="133.608" y2="-1.39276e-05" gradientUnits="userSpaceOnUse">
<stop stop-color="#808080" stop-opacity="0.25"/>
<stop offset="0.54" stop-color="#808080" stop-opacity="0.12"/>
<stop offset="1" stop-color="#808080" stop-opacity="0.1"/>
</linearGradient>
<clipPath id="clip0_380:263">
<rect width="250" height="199" fill="white"/>
</clipPath>
</defs>
</svg>
